<?xml version="1.0" encoding="UTF-8" standalone="no"?>
<!-- Created with Inkscape (http://www.inkscape.org/) -->

<svg
   xmlns:dc="http://purl.org/dc/elements/1.1/"
   xmlns:cc="http://creativecommons.org/ns#"
   xmlns:rdf="http://www.w3.org/1999/02/22-rdf-syntax-ns#"
   xmlns:svg="http://www.w3.org/2000/svg"
   xmlns="http://www.w3.org/2000/svg"
   xmlns:sodipodi="http://sodipodi.sourceforge.net/DTD/sodipodi-0.dtd"
   xmlns:inkscape="http://www.inkscape.org/namespaces/inkscape"
   version="1.1"
   id="svg2"
   xml:space="preserve"
   width="933.29303"
   height="1102.7183"
   viewBox="0 0 933.29301 1102.7182"
   sodipodi:docname="farmer.ai"
   inkscape:version="0.92.3 (2405546, 2018-03-11)"><metadata
     id="metadata8"><rdf:RDF><cc:Work
         rdf:about=""><dc:format>image/svg+xml</dc:format><dc:type
           rdf:resource="http://purl.org/dc/dcmitype/StillImage" /><dc:title></dc:title></cc:Work></rdf:RDF></metadata><defs
     id="defs6"><clipPath
       clipPathUnits="userSpaceOnUse"
       id="clipPath20"><path
         d="M 0,980 H 1400 V 0 H 0 Z"
         id="path18"
         inkscape:connector-curvature="0" /></clipPath></defs><sodipodi:namedview
     pagecolor="#ffffff"
     bordercolor="#666666"
     borderopacity="1"
     objecttolerance="10"
     gridtolerance="10"
     guidetolerance="10"
     inkscape:pageopacity="0"
     inkscape:pageshadow="2"
     inkscape:window-width="1920"
     inkscape:window-height="1057"
     id="namedview4"
     showgrid="false"
     fit-margin-top="0"
     fit-margin-left="0"
     fit-margin-right="0"
     fit-margin-bottom="0"
     inkscape:zoom="0.44699248"
     inkscape:cx="518.52528"
     inkscape:cy="711.70313"
     inkscape:window-x="1912"
     inkscape:window-y="-8"
     inkscape:window-maximized="1"
     inkscape:current-layer="g16" /><g
     id="g10"
     inkscape:groupmode="layer"
     inkscape:label="farmer"
     transform="matrix(1.3333333,0,0,-1.3333333,-466.68686,1204.6924)"><g
       id="g14"><g
         id="g16"
         clip-path="url(#clipPath20)"><g
           id="g1295"
           transform="matrix(1.7002252,0,0,1.7002252,112.49437,-342.03401)"><g
             transform="translate(488.868,607.1105)"
             id="g66"><path
               inkscape:connector-curvature="0"
               id="path68"
               style="fill:#debd87;fill-opacity:0.97989951;fill-rule:nonzero;stroke:none"
               d="m 0,0 -38.958,31.497 -96.371,77.916 -0.05,-0.041 L -270.585,0 -333.11,-102.829 V -360.91 h 57.311 v -0.048 h 78.156 62.264 62.263 v 0 H 5.04 v 0.048 h 57.484 v 0 258.081 z" /></g><g
             transform="translate(472.8096,623.1689)"
             id="g70"><path
               inkscape:connector-curvature="0"
               id="path72"
               style="fill:#ffffff;fill-opacity:1;fill-rule:nonzero;stroke:none"
               d="M 0,0 -135.329,109.412 -270.585,0 -333.11,-102.829 V -360.91 H 62.524 v 258.081 z" /></g><g
             transform="translate(515.0738,513.7514)"
             id="g74"><path
               inkscape:connector-curvature="0"
               id="path76"
               style="fill:#ce202f;fill-opacity:1;fill-rule:nonzero;stroke:none"
               d="M 0,0 -56.087,93.534 -177.589,191.741 -299.091,93.534 -355.114,0 Z" /></g><path
             inkscape:connector-curvature="0"
             id="path78"
             style="fill:#ce202f;fill-opacity:1;fill-rule:nonzero;stroke:none"
             d="M 515.074,262.28 H 159.96 v 234.798 h 355.114 z" /><g
             transform="translate(337.4807,732.5814)"
             id="g80"><path
               inkscape:connector-curvature="0"
               id="path82"
               style="fill:#dbdbdb;fill-opacity:1;fill-rule:nonzero;stroke:none"
               d="m 0,0 -0.051,-0.041 v -470.281 h 197.904 v 258.08 l -62.524,102.83 z" /></g><path
             inkscape:connector-curvature="0"
             id="path84"
             style="fill:#9b1823;fill-opacity:1;fill-rule:nonzero;stroke:none"
             d="M 337.43,262.28 H 515.074 V 497.078 H 337.43 Z" /><g
             transform="translate(337.4302,705.4487)"
             id="g86"><path
               inkscape:connector-curvature="0"
               id="path88"
               style="fill:#9b1823;fill-opacity:1;fill-rule:nonzero;stroke:none"
               d="M 0,0 V -191.697 H 177.644 L 121.556,-98.163 0.054,0.044 Z" /></g><path
             inkscape:connector-curvature="0"
             id="path90"
             style="fill:#ffffff;fill-opacity:1;fill-rule:nonzero;stroke:none"
             d="m 275.166,262.211 h -78.155 v 156.712 h 78.155 z" /><path
             inkscape:connector-curvature="0"
             id="path92"
             style="fill:#9b1823;fill-opacity:1;fill-rule:nonzero;stroke:none"
             d="M 270.657,267.074 H 201.521 V 414.06 h 69.136 z" /><path
             inkscape:connector-curvature="0"
             id="path94"
             style="fill:#29282a;fill-opacity:1;fill-rule:nonzero;stroke:none"
             d="M 399.694,262.211 H 275.166 v 156.712 h 124.528 z" /><g
             transform="translate(201.5206,414.06)"
             id="g96"><path
               inkscape:connector-curvature="0"
               id="path98"
               style="fill:#ffffff;fill-opacity:1;fill-rule:nonzero;stroke:none"
               d="m 0,0 v -8.608 l 64.527,-138.378 h 4.609 v 8.608 L 4.61,0 Z" /></g><g
             transform="translate(270.657,405.4524)"
             id="g100"><path
               inkscape:connector-curvature="0"
               id="path102"
               style="fill:#ffffff;fill-opacity:1;fill-rule:nonzero;stroke:none"
               d="m 0,0 v 8.608 h -4.61 l -64.526,-138.379 v -8.607 h 4.609 z" /></g><path
             inkscape:connector-curvature="0"
             id="path104"
             style="fill:#dbdbdb;fill-opacity:1;fill-rule:nonzero;stroke:none"
             d="m 477.849,262.211 h -78.155 v 156.712 h 78.155 z" /><path
             inkscape:connector-curvature="0"
             id="path106"
             style="fill:#671018;fill-opacity:1;fill-rule:nonzero;stroke:none"
             d="M 473.34,267.074 H 404.203 V 414.06 h 69.137 z" /><g
             transform="translate(404.2032,414.06)"
             id="g108"><path
               inkscape:connector-curvature="0"
               id="path110"
               style="fill:#dbdbdb;fill-opacity:1;fill-rule:nonzero;stroke:none"
               d="m 0,0 v -8.608 l 64.527,-138.378 h 4.61 v 8.608 L 4.61,0 Z" /></g><g
             transform="translate(473.3398,405.4524)"
             id="g112"><path
               inkscape:connector-curvature="0"
               id="path114"
               style="fill:#dbdbdb;fill-opacity:1;fill-rule:nonzero;stroke:none"
               d="m 0,0 v 8.608 h -4.61 l -64.527,-138.379 v -8.607 h 4.61 z" /></g><path
             inkscape:connector-curvature="0"
             id="path116"
             style="fill:#29282a;fill-opacity:1;fill-rule:nonzero;stroke:none"
             d="m 375.726,606.496 h -76.592 v -92.744 h 76.592 z" /><path
             inkscape:connector-curvature="0"
             id="path118"
             style="fill:#671018;fill-opacity:1;fill-rule:nonzero;stroke:none"
             d="m 413.936,606.496 h -38.209 v -92.744 h 38.209 z" /><path
             inkscape:connector-curvature="0"
             id="path120"
             style="fill:#9b1823;fill-opacity:1;fill-rule:nonzero;stroke:none"
             d="m 299.134,606.496 h -38.209 v -92.744 h 38.209 z" /><g
             transform="translate(260.9248,606.4957)"
             id="g122"><path
               inkscape:connector-curvature="0"
               id="path124"
               style="fill:#ffffff;fill-opacity:1;fill-rule:nonzero;stroke:none"
               d="m 0,0 v -8.714 l 32.058,-84.03 h 6.151 v 4.827 L 4.669,0 Z" /></g><g
             transform="translate(413.9355,606.4957)"
             id="g126"><path
               inkscape:connector-curvature="0"
               id="path128"
               style="fill:#dbdbdb;fill-opacity:1;fill-rule:nonzero;stroke:none"
               d="m 0,0 v -8.714 l -32.058,-84.03 h -6.151 v 4.827 L -4.669,0 Z" /></g><path
             inkscape:connector-curvature="0"
             id="path130"
             style="fill:#121112;fill-opacity:1;fill-rule:nonzero;stroke:none"
             d="m 337.43,262.211 h 62.264 V 418.923 H 337.43 Z" /><path
             inkscape:connector-curvature="0"
             id="path132"
             style="fill:#121112;fill-opacity:1;fill-rule:nonzero;stroke:none"
             d="m 337.43,513.751 h 38.296 v 92.744 H 337.43 Z" /></g></g></g></g></svg>