<?xml version="1.0" encoding="UTF-8" standalone="no"?>
<!-- Created with Inkscape (http://www.inkscape.org/) -->

<svg
   xmlns:dc="http://purl.org/dc/elements/1.1/"
   xmlns:cc="http://creativecommons.org/ns#"
   xmlns:rdf="http://www.w3.org/1999/02/22-rdf-syntax-ns#"
   xmlns:svg="http://www.w3.org/2000/svg"
   xmlns="http://www.w3.org/2000/svg"
   xmlns:sodipodi="http://sodipodi.sourceforge.net/DTD/sodipodi-0.dtd"
   xmlns:inkscape="http://www.inkscape.org/namespaces/inkscape"
   version="1.1"
   id="svg2"
   xml:space="preserve"
   width="373.10266"
   height="286.65094"
   viewBox="0 0 373.10265 286.65093"
   sodipodi:docname="tractor.ai"
   inkscape:version="0.92.3 (2405546, 2018-03-11)"><metadata
     id="metadata8"><rdf:RDF><cc:Work
         rdf:about=""><dc:format>image/svg+xml</dc:format><dc:type
           rdf:resource="http://purl.org/dc/dcmitype/StillImage" /><dc:title></dc:title></cc:Work></rdf:RDF></metadata><defs
     id="defs6"><clipPath
       clipPathUnits="userSpaceOnUse"
       id="clipPath20"><path
         d="M 0,980 H 1400 V 0 H 0 Z"
         id="path18"
         inkscape:connector-curvature="0" /></clipPath></defs><sodipodi:namedview
     pagecolor="#ffffff"
     bordercolor="#666666"
     borderopacity="1"
     objecttolerance="10"
     gridtolerance="10"
     guidetolerance="10"
     inkscape:pageopacity="0"
     inkscape:pageshadow="2"
     inkscape:window-width="1920"
     inkscape:window-height="1057"
     id="namedview4"
     showgrid="false"
     fit-margin-top="0"
     fit-margin-left="0"
     fit-margin-right="0"
     fit-margin-bottom="0"
     inkscape:zoom="0.44850771"
     inkscape:cx="507.14945"
     inkscape:cy="112.41408"
     inkscape:window-x="1912"
     inkscape:window-y="-8"
     inkscape:window-maximized="1"
     inkscape:current-layer="g16" /><g
     id="g10"
     inkscape:groupmode="layer"
     inkscape:label="tractor"
     transform="matrix(1.3333333,0,0,-1.3333333,-766.53191,957.96768)"><g
       id="g14"><g
         id="g16"
         clip-path="url(#clipPath20)"><g
           id="g70"
           transform="translate(472.8096,623.1689)" /><g
           id="g1301"
           transform="translate(-405.57435,-15.371623)"><g
             transform="translate(1246.9913,584.6762)"
             id="g376"><path
               inkscape:connector-curvature="0"
               id="path378"
               style="fill:#debd87;fill-opacity:1;fill-rule:nonzero;stroke:none"
               d="m 0,0 -2.701,8.734 -11.096,35.878 -6.889,22.273 h -25.547 v 30.503 h -2.764 v 27.835 l -7.926,7.89 -2.426,-2.427 6.92,-6.92 V 97.388 h -3.337 V 66.885 h -28.978 v 23.958 7.704 7.418 8.391 h 5.306 l -3.813,17.349 h -17.349 -83.504 v -10.676 h 5.306 V 66.885 h -9.108 -3.824 V 51.642 c -32.436,0 -58.73,-26.294 -58.73,-58.73 0,-32.435 26.294,-58.729 58.73,-58.729 32.435,0 58.729,26.294 58.729,58.729 h 15.337 63.224 c -4.28,-6.067 -6.802,-13.464 -6.802,-21.454 0,-20.586 16.688,-37.275 37.275,-37.275 20.587,0 37.276,16.689 37.276,37.275 C 13.309,-17.083 8.134,-6.838 0,0" /></g><g
             transform="translate(1210.2469,667.6191)"
             id="g380"><path
               inkscape:connector-curvature="0"
               id="path382"
               style="fill:#08459e;fill-opacity:1;fill-rule:nonzero;stroke:none"
               d="m 0,0 h -171.044 v -15.728 c 32.167,0 58.244,-26.077 58.244,-58.244 H 22.878 Z" /></g><g
             transform="translate(1097.9323,593.6471)"
             id="g384"><path
               inkscape:connector-curvature="0"
               id="path386"
               style="fill:#29282a;fill-opacity:1;fill-rule:nonzero;stroke:none"
               d="m 0,0 c 0,-32.435 -26.294,-58.73 -58.73,-58.73 -32.435,0 -58.729,26.295 -58.729,58.73 0,32.436 26.294,58.73 58.729,58.73 C -26.294,58.73 0,32.436 0,0" /></g><g
             transform="translate(1069.2469,592.8518)"
             id="g388"><path
               inkscape:connector-curvature="0"
               id="path390"
               style="fill:#ffffff;fill-opacity:1;fill-rule:nonzero;stroke:none"
               d="m 0,0 c 0,-16.593 -13.451,-30.044 -30.044,-30.044 -16.593,0 -30.045,13.451 -30.045,30.044 0,16.593 13.452,30.044 30.045,30.044 C -13.451,30.044 0,16.593 0,0" /></g><g
             transform="translate(1049.7782,593.6471)"
             id="g392"><path
               inkscape:connector-curvature="0"
               id="path394"
               style="fill:#b6b7b8;fill-opacity:1;fill-rule:nonzero;stroke:none"
               d="m 0,0 c 0,-5.841 -4.735,-10.576 -10.576,-10.576 -5.84,0 -10.575,4.735 -10.575,10.576 0,5.841 4.735,10.576 10.575,10.576 C -4.735,10.576 0,5.841 0,0" /></g><g
             transform="translate(1244.2416,572.1929)"
             id="g396"><path
               inkscape:connector-curvature="0"
               id="path398"
               style="fill:#29282a;fill-opacity:1;fill-rule:nonzero;stroke:none"
               d="m 0,0 c 0,-20.587 -16.689,-37.276 -37.276,-37.276 -20.586,0 -37.275,16.689 -37.275,37.276 0,20.587 16.689,37.276 37.275,37.276 C -16.689,37.276 0,20.587 0,0" /></g><g
             transform="translate(1226.035,571.6882)"
             id="g400"><path
               inkscape:connector-curvature="0"
               id="path402"
               style="fill:#ffffff;fill-opacity:1;fill-rule:nonzero;stroke:none"
               d="m 0,0 c 0,-10.532 -8.537,-19.069 -19.069,-19.069 -10.532,0 -19.069,8.537 -19.069,19.069 0,10.532 8.537,19.069 19.069,19.069 C -8.537,19.069 0,10.532 0,0" /></g><g
             transform="translate(1213.6783,572.1929)"
             id="g404"><path
               inkscape:connector-curvature="0"
               id="path406"
               style="fill:#b6b7b8;fill-opacity:1;fill-rule:nonzero;stroke:none"
               d="m 0,0 c 0,-3.707 -3.005,-6.712 -6.712,-6.712 -3.707,0 -6.713,3.005 -6.713,6.712 0,3.707 3.006,6.712 6.713,6.712 C -3.005,6.712 0,3.707 0,0" /></g><path
             inkscape:connector-curvature="0"
             id="path408"
             style="fill:#a3dbef;fill-opacity:1;fill-rule:nonzero;stroke:none"
             d="m 1146.189,667.619 h -94.054 v 54.144 h 94.054 z" /><g
             transform="translate(1213.7266,656.3683)"
             id="g410"><path
               inkscape:connector-curvature="0"
               id="path412"
               style="fill:#2f6ab2;fill-opacity:1;fill-rule:nonzero;stroke:none"
               d="m 0,0 h -25.214 c -5.033,0 -9.151,-4.118 -9.151,-9.151 v -28.598 c 0,-5.033 4.118,-9.151 9.151,-9.151 h 39.719 z" /></g><g
             transform="translate(1156.5017,616.7158)"
             id="g414"><path
               inkscape:connector-curvature="0"
               id="path416"
               style="fill:#063477;fill-opacity:1;fill-rule:nonzero;stroke:none"
               d="M 0,0 H -0.989 C -4.02,0 -6.5,2.48 -6.5,5.511 v 22.151 c 0,3.031 2.48,5.511 5.511,5.511 H 0 c 3.031,0 5.511,-2.48 5.511,-5.511 V 5.511 C 5.511,2.48 3.031,0 0,0" /></g><path
             inkscape:connector-curvature="0"
             id="path418"
             style="fill:#04234f;fill-opacity:1;fill-rule:nonzero;stroke:none"
             d="m 1150.002,627.548 h 12.011 v 11.17 h -12.011 z" /><g
             transform="translate(1043.0273,667.6191)"
             id="g420"><path
               inkscape:connector-curvature="0"
               id="path422"
               style="fill:#2f6ab2;fill-opacity:1;fill-rule:nonzero;stroke:none"
               d="m 0,0 h -3.825 v -15.728 c 32.168,0 58.244,-26.077 58.244,-58.244 h 15.823 c 0,0.031 10e-4,0.062 10e-4,0.093 C 70.243,-34.276 39.121,-1.943 0,0" /></g><path
             inkscape:connector-curvature="0"
             id="path424"
             style="fill:#29282a;fill-opacity:1;fill-rule:nonzero;stroke:none"
             d="m 1184.7,698.123 h -9.532 v -30.504 h 9.532 z" /><g
             transform="translate(1174.0101,733.8474)"
             id="g426"><path
               inkscape:connector-curvature="0"
               id="path428"
               style="fill:#dbdbdb;fill-opacity:1;fill-rule:nonzero;stroke:none"
               d="m 0,0 -2.427,-2.427 6.921,-6.92 v -26.377 h 3.431 v 27.835 z" /></g><g
             transform="translate(1052.135,708.9553)"
             id="g430"><path
               inkscape:connector-curvature="0"
               id="path432"
               style="fill:#ffffff;fill-opacity:1;fill-rule:nonzero;stroke:none"
               d="M 0,0 12.808,12.808 H 5.36 L 0,7.448 Z" /></g><g
             transform="translate(1052.135,699.0223)"
             id="g434"><path
               inkscape:connector-curvature="0"
               id="path436"
               style="fill:#ffffff;fill-opacity:1;fill-rule:nonzero;stroke:none"
               d="M 0,0 22.741,22.741 H 16.24 L 0,6.501 Z" /></g><g
             transform="translate(1052.135,676.7268)"
             id="g438"><path
               inkscape:connector-curvature="0"
               id="path440"
               style="fill:#ffffff;fill-opacity:1;fill-rule:nonzero;stroke:none"
               d="m 0,0 v -9.108 h 1.207 l 47.472,47.472 -5.63,4.685 z" /></g><g
             transform="translate(1101.132,667.6191)"
             id="g442"><path
               inkscape:connector-curvature="0"
               id="path444"
               style="fill:#ffffff;fill-opacity:1;fill-rule:nonzero;stroke:none"
               d="M 0,0 H 5.976 L 45.057,39.08 V 52.746 L 0,7.69 Z" /></g><g
             transform="translate(1146.1887,691.5773)"
             id="g446"><path
               inkscape:connector-curvature="0"
               id="path448"
               style="fill:#ffffff;fill-opacity:1;fill-rule:nonzero;stroke:none"
               d="m 0,0 v 7.704 l -31.662,-31.662 h 7.704 z" /></g><path
             inkscape:connector-curvature="0"
             id="path450"
             style="fill:#063477;fill-opacity:1;fill-rule:nonzero;stroke:none"
             d="m 1103.865,667.619 h -9.405 v 54.144 h 9.405 z" /><g
             transform="translate(1130.333,732.44)"
             id="g452"><path
               inkscape:connector-curvature="0"
               id="path454"
               style="fill:#29282a;fill-opacity:1;fill-rule:nonzero;stroke:none"
               d="M 0,0 H -83.505 V -10.676 H 0 v -6.673 H 21.162 L 17.349,0 Z" /></g></g></g></g></g></svg>